<svg width="72" height="45" viewBox="0 0 72 45" fill="none" xmlns="http://www.w3.org/2000/svg">
<path d="M19.8334 24.8426V19.0244L13.073 26.2062C13.073 26.2062 12.9829 26.3283 12.9829 26.4789C12.9829 26.6295 13.073 26.7516 13.073 26.7516L15.2364 28.9334C15.2364 28.9334 15.3589 29.0939 15.5068 29.1152C15.681 29.1404 15.8673 28.9334 15.8673 28.9334L19.8334 24.8426Z" fill="#868686"/>
<path d="M15.5072 16.9334C15.31 16.9618 15.1466 16.7516 15.1466 16.7516C15.1466 16.7516 12.1783 13.3473 10.189 11.8426C9.82845 11.5698 8.11583 10.6029 6.76376 11.8426C5.86179 12.6696 6.22293 14.2475 6.76376 14.8425C8.7468 17.0244 14.0649 22.388 14.0649 22.388C14.0649 22.388 14.3505 22.5747 14.3354 22.7516C14.3244 22.8791 14.1551 23.0243 14.1551 23.0243L12.0819 25.1152C12.0819 25.1152 11.9109 25.2923 11.7214 25.297C11.5763 25.3007 11.3608 25.1152 11.3608 25.1152L0.183093 13.9335C0.183093 13.9335 -0.0264814 13.7175 0.00280769 13.5698C0.0223337 13.4714 0.0929549 13.388 0.0929549 13.388C0.0929549 13.388 1.6253 12.0244 2.347 11.2971C2.36717 11.2768 2.53272 11.1811 2.70696 11.2062C2.8548 11.2275 2.97796 11.2971 2.97796 11.2971L3.60893 11.8426C3.60893 11.8426 4.27134 8.88301 5.6821 7.8426C7.39078 6.58249 9.70818 6.56987 11.0904 7.47897C13.1636 8.84253 18.031 14.0244 18.031 14.0244C18.031 14.0244 18.1212 14.1465 18.1212 14.2971C18.1212 14.4477 18.031 14.5698 18.031 14.5698C18.031 14.5698 16.3184 16.388 15.7776 16.8425C15.692 16.9144 15.655 16.9121 15.5072 16.9334Z" fill="#5C5C5C"/>
<path d="M24.4298 2.38824L16.3174 10.6609L19.1117 13.4791C19.1117 13.4791 20.644 12.0246 21.7257 11.1154C22.1902 10.725 23.3919 10.7836 24.0693 11.4791C24.7223 12.1497 24.9071 13.3882 24.4298 13.9337C23.0777 15.4791 21.3651 17.479 21.3651 17.479H26.8635C27.6028 16.3785 28.2098 15.2972 28.5762 14.7518C28.9425 14.2064 29.3424 12.4791 28.2156 10.6609C27.0888 8.84268 23.889 8.66092 23.889 8.66092L27.4534 4.98039C27.4534 4.98039 27.5752 4.86167 27.5846 4.75189C27.5925 4.66099 27.4044 4.47913 27.4044 4.47913L25.2411 2.38824C25.2411 2.38824 25.0784 2.22864 24.8805 2.20646C24.6565 2.18135 24.4298 2.38824 24.4298 2.38824Z" fill="#868686"/>
<ellipse cx="15.4166" cy="4.56993" rx="3.60552" ry="3.63634" fill="#5C5C5C"/>
<path d="M37.7103 19.1152V38.9333H33.5749L25.5729 26.4599H25.429V38.9333H21.2744V19.1152H25.7813L33.4022 31.5789H33.5749V19.1152H37.7103Z" fill="#5C5C5C"/>
<path d="M38.9644 38.9333V19.1152L53.5438 19.1152V22.5698L43.1189 22.5698V27.2921H52.8227V30.7467H43.1189V35.4787L54.0847 35.4787V38.9333L38.9644 38.9333Z" fill="#5C5C5C"/>
<path d="M59.4585 19.1152L63.4212 25.8696H62.9024L66.8843 19.1152H71.932L65.4846 29.0243L71.932 38.9333H67.2448L63.215 32.1692H63.4212L59.3914 38.9333H54.6324L60.7826 29.0243L54.7475 19.1152H59.4585Z" fill="#5C5C5C"/>
<path d="M24.1023 42.6175H22.0164V41.1805C22.0164 41.0422 21.9136 40.978 21.7814 40.978C21.6443 40.978 21.5464 41.0422 21.5464 41.1805V44.6817C21.5464 44.815 21.6443 44.8842 21.7814 44.8842C21.9136 44.8842 22.0164 44.815 22.0164 44.6817V43.0472H24.1023V44.6817C24.1023 44.815 24.2051 44.8842 24.3471 44.8842C24.4744 44.8842 24.5724 44.815 24.5724 44.6817V41.1805C24.5724 41.0422 24.4744 40.978 24.3471 40.978C24.2051 40.978 24.1023 41.0422 24.1023 41.1805V42.6175Z" fill="#5C5C5C"/>
<path d="M27.5952 43.0867H29.2649C29.3824 43.0867 29.4558 42.9928 29.4558 42.8793C29.4558 42.7558 29.3873 42.6669 29.2649 42.6669H27.5952V41.6447C27.5952 41.5262 27.6442 41.4719 27.7617 41.4719H29.4852C29.6125 41.4719 29.6811 41.378 29.6811 41.2546C29.6811 41.1311 29.6125 41.0422 29.4852 41.0422H27.6344C27.2867 41.0422 27.1349 41.1953 27.1349 41.5756V44.3607C27.1349 44.736 27.2867 44.8891 27.6344 44.8891H29.5293C29.6566 44.8891 29.7251 44.7904 29.7251 44.6718C29.7251 44.5484 29.6566 44.4595 29.5293 44.4595H27.7764C27.6687 44.4595 27.5952 44.415 27.5952 44.3015V43.0867Z" fill="#5C5C5C"/>
<path d="M32.7886 43.7089H34.4828L34.8696 44.7311C34.9039 44.8249 34.9822 44.8694 35.0703 44.8694C35.0997 44.8694 35.1291 44.8644 35.1585 44.8545C35.2564 44.8299 35.3348 44.7558 35.3348 44.657C35.3348 44.6274 35.3299 44.6027 35.3152 44.5731L33.9833 41.1904C33.9197 41.0225 33.7924 40.9583 33.6357 40.9583C33.4839 40.9583 33.3615 41.0225 33.2979 41.1904L31.966 44.5632C31.9562 44.5928 31.9513 44.6175 31.9513 44.6471C31.9513 44.741 32.0248 44.8249 32.1227 44.8496C32.157 44.8595 32.1864 44.8644 32.2206 44.8644C32.3039 44.8644 32.3773 44.8249 32.4116 44.7262L32.7886 43.7089ZM32.9355 43.2941L33.4888 41.862C33.5476 41.7138 33.5965 41.5558 33.6406 41.3879C33.6847 41.5558 33.7385 41.7138 33.7924 41.857L34.3359 43.2941H32.9355Z" fill="#5C5C5C"/>
<path d="M37.5344 44.3262C37.5344 44.8545 37.5344 44.8545 38.0339 44.8545H39.9141C40.0414 44.8545 40.1148 44.7459 40.1148 44.6274C40.1148 44.5039 40.0414 44.4101 39.9141 44.4101H38.1808C38.0045 44.4101 38.0045 44.4101 38.0045 44.2373V41.1854C38.0045 41.0422 37.9066 40.978 37.7695 40.978C37.6373 40.978 37.5344 41.0422 37.5344 41.1904V44.3262Z" fill="#5C5C5C"/>
<path d="M42.9245 41.4274V44.6669C42.9245 44.8002 43.0274 44.8694 43.1596 44.8694C43.2918 44.8694 43.3946 44.8002 43.3946 44.6669V41.4274H44.5061C44.6187 41.4274 44.6921 41.3287 44.6921 41.2151C44.6921 41.0966 44.6236 40.9929 44.5061 40.9929H41.8082C41.6907 40.9929 41.6221 41.0966 41.6221 41.2151C41.6221 41.3287 41.6907 41.4274 41.8131 41.4274H42.9245Z" fill="#5C5C5C"/>
<path d="M49.6561 42.6175H47.5702V41.1805C47.5702 41.0422 47.4674 40.978 47.3352 40.978C47.1981 40.978 47.1001 41.0422 47.1001 41.1805V44.6817C47.1001 44.815 47.1981 44.8842 47.3352 44.8842C47.4674 44.8842 47.5702 44.815 47.5702 44.6817V43.0472H49.6561V44.6817C49.6561 44.815 49.7589 44.8842 49.9009 44.8842C50.0282 44.8842 50.1261 44.815 50.1261 44.6817V41.1805C50.1261 41.0422 50.0282 40.978 49.9009 40.978C49.7589 40.978 49.6561 41.0422 49.6561 41.1805V42.6175Z" fill="#5C5C5C"/>
<path d="M54.4759 40.9336C53.4575 40.9336 52.7867 41.7287 52.7867 42.9286C52.7867 44.1583 53.4575 44.9336 54.5102 44.9336C55.3818 44.9336 56.0564 44.4007 56.2277 43.9118C56.2375 43.8822 56.2424 43.8575 56.2424 43.8278C56.2424 43.7241 56.1543 43.6501 56.071 43.6303C56.0368 43.6204 56.0025 43.6155 55.9731 43.6155C55.8801 43.6155 55.7919 43.6599 55.7528 43.7686C55.6255 44.1636 55.0831 44.499 54.4955 44.499C53.7611 44.499 53.2763 43.8867 53.2763 42.9336C53.2763 41.9607 53.7611 41.3632 54.4955 41.3632C55.0537 41.3632 55.5618 41.6748 55.7087 42.0303C55.7528 42.1242 55.8311 42.1587 55.9144 42.1587C55.9535 42.1587 55.9927 42.1538 56.0319 42.139C56.1053 42.1143 56.1837 42.0451 56.1837 41.9414C56.1837 41.9118 56.1788 41.8772 56.1641 41.8427C55.9878 41.4081 55.3377 40.9336 54.4759 40.9336Z" fill="#5C5C5C"/>
<path d="M59.2049 43.7583H60.899L61.2858 44.7805C61.3201 44.8743 61.3984 44.9187 61.4866 44.9187C61.5159 44.9187 61.5453 44.9138 61.5747 44.9039C61.6726 44.8792 61.751 44.8052 61.751 44.7064C61.751 44.6768 61.7461 44.6521 61.7314 44.6225L60.3996 41.2398C60.3359 41.0719 60.2086 41.0077 60.0519 41.0077C59.9001 41.0077 59.7777 41.0719 59.7141 41.2398L58.3823 44.6126C58.3725 44.6422 58.3676 44.6669 58.3676 44.6965C58.3676 44.7904 58.441 44.8743 58.5389 44.899C58.5732 44.9089 58.6026 44.9138 58.6369 44.9138C58.7201 44.9138 58.7936 44.8743 58.8278 44.7755L59.2049 43.7583ZM59.3517 43.3435L59.905 41.9114C59.9638 41.7632 60.0128 41.6052 60.0568 41.4373C60.1009 41.6052 60.1548 41.7632 60.2086 41.9064L60.7521 43.3435H59.3517Z" fill="#5C5C5C"/>
<path d="M66.7243 43.9331C66.7243 43.9331 66.5253 43.024 66.0583 42.9282C66.5137 42.8294 66.832 42.5331 66.832 41.9652C66.832 41.3578 66.4403 40.9776 65.7303 40.9776H64.5845C64.2369 40.9776 64.0851 41.1307 64.0851 41.5109V44.6418C64.0851 44.785 64.183 44.8541 64.3201 44.8541C64.4523 44.8541 64.5453 44.785 64.5453 44.6467V43.0961H65.4463C66.4256 43.0961 66.345 44.5695 66.4256 44.8047C66.4548 44.8902 66.5333 44.9331 66.6165 44.9331C66.6508 44.9331 66.69 44.9282 66.7243 44.9183C66.8222 44.8936 66.8858 44.8451 66.8858 44.7513C66.8858 44.7217 66.8809 44.6714 66.8711 44.6418L66.7243 43.9331ZM64.5453 42.6912V41.5603C64.5453 41.4418 64.6041 41.3875 64.7069 41.3875H65.7009C66.1367 41.3875 66.3619 41.6146 66.3619 42.0344C66.3619 42.4294 66.0877 42.6912 65.6715 42.6912H64.5453Z" fill="#5C5C5C"/>
<path d="M69.87 43.0521H71.5396C71.6571 43.0521 71.7306 42.9583 71.7306 42.8447C71.7306 42.7212 71.662 42.6323 71.5396 42.6323H69.87V41.6101C69.87 41.4916 69.9189 41.4373 70.0364 41.4373H71.76C71.8873 41.4373 71.9558 41.3435 71.9558 41.22C71.9558 41.0966 71.8873 41.0077 71.76 41.0077H69.9091C69.5615 41.0077 69.4097 41.1608 69.4097 41.541V44.3262C69.4097 44.7015 69.5615 44.8545 69.9091 44.8545H71.804C71.9313 44.8545 71.9999 44.7558 71.9999 44.6373C71.9999 44.5138 71.9313 44.4249 71.804 44.4249H70.0511C69.9434 44.4249 69.87 44.3805 69.87 44.2669V43.0521Z" fill="#5C5C5C"/>
</svg>
