<svg aria-hidden="true" style="position: absolute; width: 0; height: 0; overflow: hidden;" version="1.1" xmlns="http://www.w3.org/2000/svg" xmlns:xlink="http://www.w3.org/1999/xlink">
<defs>

<symbol id="burger_icon" viewBox="0 0 43 32">
<path fill="#5c5c5c" style="fill: var(--color1, #5c5c5c)" d="M2.526 0h37.614c1.395 0 2.526 1.131 2.526 2.526v0c0 1.395-1.131 2.526-2.526 2.526h-37.614c-1.395 0-2.526-1.131-2.526-2.526v-0c0-1.395 1.131-2.526 2.526-2.526z"></path>
<path fill="#5c5c5c" style="fill: var(--color1, #5c5c5c)" d="M2.526 13.474h37.614c1.395 0 2.526 1.131 2.526 2.526v0c0 1.395-1.131 2.526-2.526 2.526h-37.614c-1.395 0-2.526-1.131-2.526-2.526v-0c0-1.395 1.131-2.526 2.526-2.526z"></path>
<path fill="#5c5c5c" style="fill: var(--color1, #5c5c5c)" d="M2.526 26.948h37.614c1.395 0 2.526 1.131 2.526 2.526v0c0 1.395-1.131 2.526-2.526 2.526h-37.614c-1.395 0-2.526-1.131-2.526-2.526v-0c0-1.395 1.131-2.526 2.526-2.526z"></path>
</symbol>

<symbol id="close_icon" viewBox="0 0 32 32">
<path fill="#5c5c5c" style="fill: var(--color1, #5c5c5c)" d="M18.932 16l12.46-12.461c0.811-0.811 0.811-2.121 0-2.932s-2.121-0.811-2.932 0l-12.46 12.461-12.46-12.461c-0.811-0.811-2.121-0.811-2.931 0s-0.811 2.121 0 2.932l12.46 12.461-12.46 12.461c-0.811 0.811-0.811 2.121 0 2.932 0.404 0.404 0.935 0.607 1.466 0.607s1.061-0.203 1.466-0.607l12.46-12.461 12.46 12.461c0.404 0.404 0.935 0.607 1.466 0.607s1.061-0.203 1.466-0.607c0.811-0.811 0.811-2.121 0-2.932l-12.46-12.461z"></path>
</symbol>

<symbol id="icon-arrow" viewBox="0 0 53 32">
<path d="M26.667 32c-0.956 0-1.912-0.384-2.64-1.151l-22.932-24.138c-1.459-1.535-1.459-4.025 0-5.56s3.823-1.535 5.282 0l20.291 21.359 20.291-21.358c1.459-1.535 3.823-1.535 5.281 0 1.459 1.535 1.459 4.024 0 5.56l-22.932 24.138c-0.729 0.767-1.685 1.15-2.64 1.15z"></path>
</symbol>

</defs>
</svg>
