<svg aria-hidden="true" style="position: absolute; width: 0; height: 0; overflow: hidden;" version="1.1" xmlns="http://www.w3.org/2000/svg" xmlns:xlink="http://www.w3.org/1999/xlink">
<defs>

<symbol id="burger_icon" viewBox="0 0 43 32">
<path fill="#5c5c5c" style="fill: var(--color1, #5c5c5c)" d="M2.526 0h37.614c1.395 0 2.526 1.131 2.526 2.526v0c0 1.395-1.131 2.526-2.526 2.526h-37.614c-1.395 0-2.526-1.131-2.526-2.526v-0c0-1.395 1.131-2.526 2.526-2.526z"></path>
<path fill="#5c5c5c" style="fill: var(--color1, #5c5c5c)" d="M2.526 13.474h37.614c1.395 0 2.526 1.131 2.526 2.526v0c0 1.395-1.131 2.526-2.526 2.526h-37.614c-1.395 0-2.526-1.131-2.526-2.526v-0c0-1.395 1.131-2.526 2.526-2.526z"></path>
<path fill="#5c5c5c" style="fill: var(--color1, #5c5c5c)" d="M2.526 26.948h37.614c1.395 0 2.526 1.131 2.526 2.526v0c0 1.395-1.131 2.526-2.526 2.526h-37.614c-1.395 0-2.526-1.131-2.526-2.526v-0c0-1.395 1.131-2.526 2.526-2.526z"></path>
</symbol>

<symbol id="close_icon" viewBox="0 0 32 32">
<path fill="#5c5c5c" style="fill: var(--color1, #5c5c5c)" d="M18.932 16l12.46-12.461c0.811-0.811 0.811-2.121 0-2.932s-2.121-0.811-2.932 0l-12.46 12.461-12.46-12.461c-0.811-0.811-2.121-0.811-2.931 0s-0.811 2.121 0 2.932l12.46 12.461-12.46 12.461c-0.811 0.811-0.811 2.121 0 2.932 0.404 0.404 0.935 0.607 1.466 0.607s1.061-0.203 1.466-0.607l12.46-12.461 12.46 12.461c0.404 0.404 0.935 0.607 1.466 0.607s1.061-0.203 1.466-0.607c0.811-0.811 0.811-2.121 0-2.932l-12.46-12.461z"></path>
</symbol>

<symbol id="icon-arrow" viewBox="0 0 53 32">
<path d="M26.667 32c-0.956 0-1.912-0.384-2.64-1.151l-22.932-24.138c-1.459-1.535-1.459-4.025 0-5.56s3.823-1.535 5.282 0l20.291 21.359 20.291-21.358c1.459-1.535 3.823-1.535 5.281 0 1.459 1.535 1.459 4.024 0 5.56l-22.932 24.138c-0.729 0.767-1.685 1.15-2.64 1.15z"></path>
</symbol>

<symbol id="icon-smile" viewBox="0 0 32 32">
<path fill="#ffd23b" style="fill: var(--color1, #ffd23b)" d="M16 32c-8.822 0-16-7.178-16-16s7.178-16 16-16c8.822 0 16 7.178 16 16s-7.178 16-16 16z"></path>
<path fill="#ffb24a" style="fill: var(--color2, #ffb24a)" d="M16 0v32c8.822 0 16-7.178 16-16s-7.178-16-16-16z"></path>
<path fill="#2d3e53" style="fill: var(--color3, #2d3e53)" d="M16.008 26.75c-2.621 0-5.087-1.397-6.434-3.645-0.266-0.444-0.122-1.020 0.322-1.286s1.020-0.122 1.286 0.322c1.010 1.686 2.859 2.734 4.825 2.734 1.971 0 3.823-1.052 4.832-2.746 0.265-0.445 0.84-0.591 1.285-0.326s0.591 0.84 0.326 1.285c-1.345 2.258-3.814 3.661-6.443 3.661z"></path>
<path fill="#2d3e53" style="fill: var(--color3, #2d3e53)" d="M18.604 14.502c-0.551 0-0.998-0.447-0.998-0.998v-0.133c0-0.587-0.477-1.064-1.064-1.064h-1.057c-0.587 0-1.064 0.477-1.064 1.064v0.119c0 0.551-0.447 0.998-0.998 0.998s-0.998-0.447-0.998-0.998v-0.119c0-1.687 1.373-3.060 3.060-3.060h1.057c1.687 0 3.060 1.373 3.060 3.060v0.133c0 0.551-0.447 0.998-0.998 0.998z"></path>
<path fill="#4e5d6f" style="fill: var(--color4, #4e5d6f)" d="M6.538 10.125h6.398c0.283 0 0.527 0.112 0.712 0.327s0.258 0.473 0.215 0.753c-0.168 1.089-0.336 1.985-0.504 3.246-0.133 1-0.974 1.736-1.982 1.736-1.093 0-2.186 0-3.278 0-1.009 0-1.849-0.736-1.982-1.736-0.168-1.261-0.336-2.158-0.503-3.247-0.043-0.28 0.031-0.538 0.215-0.753s0.428-0.327 0.712-0.327z"></path>
<path fill="#2d3e53" style="fill: var(--color3, #2d3e53)" d="M11.372 17.125h-3.278c-1.49 0-2.715-1.072-2.912-2.549-0.108-0.809-0.218-1.48-0.324-2.129-0.058-0.352-0.117-0.716-0.176-1.099-0.085-0.549 0.068-1.084 0.43-1.506s0.867-0.654 1.423-0.654h6.398c0.556 0 1.062 0.232 1.423 0.655s0.514 0.957 0.429 1.507c-0.058 0.378-0.117 0.736-0.174 1.083-0.107 0.653-0.219 1.329-0.327 2.143-0.197 1.477-1.421 2.55-2.912 2.55zM6.534 11.063c0.058 0.374 0.117 0.733 0.173 1.081 0.109 0.663 0.221 1.348 0.333 2.185 0.071 0.534 0.514 0.922 1.053 0.922h3.278c0.539 0 0.982-0.388 1.053-0.922 0.112-0.843 0.226-1.533 0.335-2.2 0.056-0.342 0.115-0.697 0.172-1.065h-6.398zM12.943 11.063v0z"></path>
<path fill="#16202d" style="fill: var(--color5, #16202d)" d="M16.529 10.311h-0.529v1.996h0.529c0.587 0 1.064 0.477 1.064 1.064v0.133c0 0.551 0.447 0.998 0.998 0.998s0.998-0.447 0.998-0.998v-0.133c0-1.687-1.373-3.060-3.060-3.060z"></path>
<path fill="#2d3948" style="fill: var(--color6, #2d3948)" d="M19.039 10.125h6.398c0.283 0 0.527 0.112 0.712 0.327s0.258 0.473 0.215 0.753c-0.168 1.089-0.336 1.985-0.504 3.246-0.133 1-0.974 1.736-1.982 1.736-1.093 0-2.186 0-3.279 0-1.009 0-1.849-0.736-1.982-1.736-0.168-1.261-0.336-2.158-0.503-3.247-0.043-0.28 0.031-0.538 0.215-0.753s0.428-0.327 0.712-0.327z"></path>
<path fill="#16202d" style="fill: var(--color5, #16202d)" d="M23.881 17.125h-3.279c-1.49 0-2.715-1.072-2.912-2.549-0.108-0.809-0.218-1.48-0.324-2.129-0.058-0.352-0.117-0.716-0.176-1.099-0.085-0.549 0.068-1.084 0.43-1.506s0.867-0.654 1.423-0.654h6.398c0.556 0 1.062 0.232 1.424 0.655s0.514 0.957 0.429 1.507c-0.058 0.378-0.117 0.736-0.174 1.083-0.108 0.653-0.219 1.329-0.327 2.143-0.197 1.477-1.421 2.55-2.912 2.55zM19.043 11.063c0.058 0.374 0.116 0.733 0.174 1.081 0.109 0.663 0.221 1.348 0.333 2.185 0.071 0.534 0.514 0.922 1.053 0.922h3.279c0.539 0 0.982-0.388 1.053-0.922 0.112-0.843 0.226-1.533 0.336-2.2 0.056-0.342 0.115-0.697 0.172-1.065h-6.398zM25.452 11.063v0z"></path>
<path fill="#16202d" style="fill: var(--color5, #16202d)" d="M22.118 21.803c-0.445-0.265-1.020-0.119-1.285 0.326-1.009 1.694-2.861 2.746-4.832 2.746v1.875c2.629 0 5.098-1.403 6.443-3.661 0.265-0.445 0.119-1.020-0.325-1.285z"></path>
</symbol>

<symbol id="icon-play" viewBox="0 0 27 32">
<path d="M5.077 1.881c-2.463-1.528-4.46-0.276-4.46 2.793v22.648c0 3.072 1.997 4.322 4.46 2.796l18.308-11.353c2.464-1.528 2.464-4.004 0-5.532l-18.308-11.352z"></path>
</symbol>

<symbol id="icon-hands" viewBox="0 0 30 32">
<path fill="#ffcc1f" style="fill: var(--color1, #ffcc1f)" d="M28.614 16.37c-0.765 0-1.386 0.623-1.386 1.392v-6.524c0-0.769-0.62-1.392-1.386-1.392s-1.386 0.623-1.386 1.392v-1.383c0-0.769-0.62-1.392-1.386-1.392s-1.386 0.623-1.386 1.392v1.383c0-0.769-0.62-1.392-1.386-1.392s-1.386 0.623-1.386 1.392v3.231c0-0.769-0.62-1.392-1.386-1.392s-1.386 0.623-1.386 1.392v9.13c0 0.978 0.289 1.934 0.829 2.747l1.041 1.566c0.541 0.813 0.829 1.769 0.829 2.747v1.311h8.387v-1.083c0-1.099 0.364-2.167 1.036-3.035l0.7-0.906c0.671-0.868 1.036-1.936 1.036-3.035v-6.151c0-0.769-0.62-1.392-1.386-1.392z"></path>
<path fill="#ffd751" style="fill: var(--color2, #ffd751)" d="M27.205 17.791c0-0.769 0.62-1.392 1.386-1.392s1.386 0.623 1.386 1.392v6.151c0 1.099-0.364 2.167-1.036 3.035l-0.7 0.906c-0.671 0.868-1.036 1.936-1.036 3.035v1.083h-4.157v-23.508c0.765 0 1.386 0.623 1.386 1.392v1.383c0-0.769 0.62-1.392 1.386-1.392s1.386 0.623 1.386 1.392v6.524z"></path>
<path fill="#ffd751" style="fill: var(--color2, #ffd751)" d="M0 17.762v6.151c0 1.099 0.364 2.167 1.036 3.035l0.7 0.906c0.671 0.868 1.036 1.936 1.036 3.035v1.083h8.387v-1.311c0-0.978 0.289-1.934 0.829-2.747l1.041-1.566c0.541-0.813 0.829-1.769 0.829-2.747v-9.13c0-0.769-0.62-1.392-1.386-1.392s-1.386 0.623-1.386 1.392v-3.231c0-0.769-0.62-1.392-1.386-1.392s-1.386 0.623-1.386 1.392v-1.383c0-0.769-0.62-1.392-1.386-1.392s-1.386 0.623-1.386 1.392v1.383c0-0.769-0.62-1.392-1.386-1.392s-1.386 0.623-1.386 1.392v6.524c0-0.769-0.62-1.392-1.386-1.392s-1.386 0.623-1.386 1.392z"></path>
<path fill="#ffcc1f" style="fill: var(--color1, #ffcc1f)" d="M11.182 30.689v1.311h-4.193l-0.036-23.508c0.765 0 1.386 0.623 1.386 1.392v1.383c0-0.769 0.62-1.392 1.386-1.392s1.386 0.623 1.386 1.392v3.231c0-0.769 0.62-1.392 1.386-1.392s1.386 0.623 1.386 1.392v9.13c0 0.978-0.289 1.934-0.829 2.747l-1.041 1.566c-0.541 0.813-0.829 1.769-0.829 2.747z"></path>
<path fill="#ffb800" style="fill: var(--color3, #ffb800)" d="M28.611 16.37c-0.231 0-0.449 0.057-0.641 0.158 0.443 0.232 0.745 0.698 0.745 1.235v5.86c0 1.099-0.364 2.167-1.035 3.035l-0.701 0.906c-0.671 0.868-1.036 2.226-1.036 3.325v1.082h1.281v-1.082c0-1.099 0.364-2.167 1.036-3.035l0.701-0.906c0.671-0.868 1.035-1.935 1.035-3.034v-6.151c0-0.769-0.62-1.393-1.385-1.393z"></path>
<path fill="#ffb800" style="fill: var(--color3, #ffb800)" d="M21.68 11.238v10.916h-0.197c-0.598 0-1.084-0.487-1.084-1.089v-9.827c0-0.384-0.155-0.732-0.406-0.985-0.099-0.1-0.214-0.184-0.34-0.25 0.192-0.101 0.409-0.158 0.64-0.158 0.382 0 0.73 0.156 0.98 0.407s0.406 0.6 0.406 0.985z"></path>
<path fill="#ffb800" style="fill: var(--color3, #ffb800)" d="M18.908 14.469v7.686h-0.208c-0.599 0-1.084-0.488-1.084-1.089v-6.597c0-0.534-0.3-0.998-0.74-1.232 0.192-0.102 0.412-0.16 0.645-0.16 0.765-0 1.386 0.624 1.386 1.392z"></path>
<path fill="#ffb800" style="fill: var(--color3, #ffb800)" d="M24.452 9.856v12.299h-0.316c-0.599 0-1.084-0.488-1.084-1.089v-11.21c0-0.384-0.155-0.733-0.406-0.985-0.083-0.084-0.178-0.157-0.28-0.218 0.205-0.121 0.445-0.191 0.7-0.191 0.383 0 0.729 0.156 0.98 0.408s0.406 0.6 0.406 0.985z"></path>
<path fill="#ffb800" style="fill: var(--color3, #ffb800)" d="M12.475 13.076c-0.252 0-0.488 0.067-0.691 0.186 0.415 0.24 0.694 0.69 0.694 1.206v9.13c0 0.978-0.288 1.934-0.829 2.747l-1.041 1.566c-0.541 0.813-0.829 1.769-0.829 2.747v1.311h1.383v-1.311c0-0.978 0.288-1.934 0.829-2.747l1.041-1.566c0.541-0.814 0.829-1.769 0.829-2.747v-9.13c-0-0.769-0.62-1.392-1.385-1.392z"></path>
<path fill="#ffb800" style="fill: var(--color3, #ffb800)" d="M5.541 27.149h-0.456c-0.471 0-0.897-0.274-1.1-0.701-0.536-1.129-1.319-1.721-1.865-2.015-0.39-0.21-0.632-0.619-0.632-1.063v-5.607c0-0.537-0.302-1.003-0.745-1.235 0.192-0.101 0.409-0.158 0.641-0.158 0.765 0 1.385 0.624 1.385 1.393v5.232c-0 0 2.62 1.115 2.772 4.154z"></path>
<path fill="#ffb800" style="fill: var(--color3, #ffb800)" d="M11.089 11.238v10.916h-0.197c-0.599 0-1.084-0.487-1.084-1.089v-9.827c0-0.384-0.155-0.732-0.406-0.985-0.099-0.1-0.214-0.184-0.339-0.25 0.192-0.101 0.409-0.158 0.641-0.158 0.382 0 0.73 0.156 0.98 0.407s0.406 0.6 0.406 0.985z"></path>
<path fill="#ffb800" style="fill: var(--color3, #ffb800)" d="M8.31 9.856v12.299h-0.316c-0.599 0-1.084-0.488-1.084-1.089v-11.21c0-0.384-0.155-0.733-0.406-0.985-0.083-0.084-0.177-0.157-0.28-0.218 0.205-0.121 0.445-0.191 0.7-0.191 0.383 0 0.729 0.156 0.98 0.408s0.405 0.6 0.405 0.985z"></path>
<path fill="#ffb800" style="fill: var(--color3, #ffb800)" d="M5.543 11.238v10.916h-0.302c-0.599 0-1.084-0.487-1.084-1.089v-9.827c0-0.384-0.155-0.732-0.406-0.985-0.085-0.086-0.182-0.16-0.287-0.221 0.204-0.119 0.441-0.187 0.693-0.187 0.382 0 0.729 0.156 0.98 0.407s0.405 0.6 0.405 0.985z"></path>
<path fill="#ffb800" style="fill: var(--color3, #ffb800)" d="M15.002 3.211c-0.261 0-0.473-0.213-0.473-0.475v-2.26c0-0.263 0.212-0.475 0.473-0.475s0.473 0.213 0.473 0.475v2.26c0 0.263-0.212 0.475-0.473 0.475z"></path>
<path fill="#ffb800" style="fill: var(--color3, #ffb800)" d="M11.252 4.217c-0.164 0-0.322-0.085-0.41-0.238l-1.125-1.957c-0.131-0.227-0.053-0.518 0.173-0.649s0.516-0.053 0.646 0.174l1.125 1.957c0.131 0.227 0.053 0.518-0.173 0.649-0.075 0.043-0.156 0.064-0.236 0.064z"></path>
<path fill="#ffb800" style="fill: var(--color3, #ffb800)" d="M8.531 6.964c-0.080 0-0.162-0.021-0.236-0.064l-1.948-1.13c-0.226-0.131-0.304-0.422-0.173-0.649s0.42-0.305 0.646-0.174l1.948 1.13c0.226 0.131 0.304 0.422 0.173 0.649-0.088 0.152-0.247 0.238-0.41 0.238z"></path>
<path fill="#ffb800" style="fill: var(--color3, #ffb800)" d="M21.473 6.964c-0.164 0-0.322-0.085-0.41-0.238-0.131-0.227-0.053-0.518 0.173-0.649l1.948-1.13c0.226-0.131 0.516-0.053 0.646 0.174s0.053 0.518-0.173 0.649l-1.948 1.13c-0.075 0.043-0.156 0.064-0.236 0.064z"></path>
<path fill="#ffb800" style="fill: var(--color3, #ffb800)" d="M18.737 4.217c-0.080 0-0.162-0.021-0.236-0.064-0.226-0.131-0.304-0.422-0.173-0.649l1.125-1.957c0.131-0.227 0.42-0.305 0.646-0.174s0.304 0.422 0.173 0.649l-1.125 1.957c-0.088 0.152-0.247 0.238-0.41 0.238z"></path>
<path fill="#ffb800" style="fill: var(--color3, #ffb800)" d="M27.197 11.217c0-0.379-0.153-0.722-0.4-0.97s-0.589-0.401-0.965-0.401c-0.249 0-0.482 0.067-0.683 0.184 0.103 0.060 0.199 0.133 0.283 0.217 0.247 0.249 0.4 0.592 0.4 0.97l0.014 11.294c0 0-2.764 1.176-2.924 4.382h0.481c0.497 0 0.946-0.289 1.16-0.74 0.566-1.19 1.392-1.815 1.967-2.125 0.411-0.222 0.667-0.652 0.667-1.121l-0-11.69z"></path>
</symbol>

</defs>
</svg>
