<svg width="86" height="31" viewBox="0 0 86 31" fill="none" xmlns="http://www.w3.org/2000/svg">
<path d="M58.7827 7.00974L60.6062 5.36362L58.4609 6.57078C58.4609 6.57078 58.9718 4.72851 59.8554 4.04671C60.9671 3.18887 63.395 3.60775 63.395 3.60775C63.395 3.60775 62.5791 5.51613 61.5716 6.24154C60.6397 6.91249 59.8554 7.00974 58.7827 7.00974Z" fill="#5C5C5C"/>
<path d="M10.8335 16.556L11.3698 16.8852C9.97542 20.5067 8.74014 22.1528 6.17934 22.1528C4.41646 22.1528 2.94122 21.5168 1.7536 20.2448C0.584532 18.9537 0 17.2925 0 15.2611C0 13.1157 0.575255 11.369 1.72576 10.0211C2.87627 8.67309 4.33296 7.9991 6.09584 7.9991C7.87727 7.9991 9.24071 8.46301 10.3546 9.93563C11.1935 11.0448 11.3698 11.9468 11.3698 13.3734H2.25251C2.25251 14.1139 2.18645 15.3987 2.35978 16.0073C2.71754 17.2634 2.85662 17.7161 3.75419 18.5313C4.69656 19.3873 5.16168 19.7385 6.75754 19.7385C8.57609 19.7385 9.73869 18.6634 10.8335 16.556ZM2.25251 12.4955H5.04134C5.74649 12.4955 8.25922 12.4955 8.25922 12.4955C8.25922 12.4955 8.2878 10.7108 7.72291 9.93563C7.1732 9.18132 6.60456 8.87402 5.68492 8.87402C4.61229 8.87402 3.94613 9.16859 3.21788 9.93563C2.48814 10.7042 2.25251 11.5078 2.25251 12.4955Z" fill="#5C5C5C"/>
<path d="M17.2537 16.5141H18.1722C18.4492 18.6421 18.7981 19.3663 19.5218 20.0688C20.2455 20.7522 20.7644 20.909 21.4525 21.1662C22.2434 21.4617 23.0411 21.3834 23.5978 20.9467C24.173 20.491 24.4348 19.97 24.4607 19.2095C24.4993 18.0715 22.7397 16.8852 22.7397 16.8852L20.4872 15.5693C20.4872 15.5693 18.88 14.7882 18.3419 14.1427C17.8223 13.4972 17.4764 12.9638 17.4764 12.1285C17.4764 10.9893 17.8753 10.0116 18.6733 9.19519C19.4898 8.35983 20.566 7.94215 21.9021 7.94215C23.0526 7.94215 23.9196 8.21662 24.5743 8.54585L25.0474 7.94215H25.5285L25.632 12.4966H25.0995C24.7098 11.2055 24.8944 10.9763 24.2414 10.192C23.5443 9.35485 22.8392 8.96736 21.7629 8.96736C20.8722 8.96736 20.1671 9.19519 19.6475 9.65084C19.1465 10.0875 19.246 10.8504 19.3073 11.2894C19.4145 12.0576 23.5978 14.2524 23.5978 14.2524C23.5978 14.2524 25.1124 15.0149 25.6877 15.6983C26.2629 16.3818 26.5505 17.1887 26.5505 18.119C26.5505 19.3531 26.0959 20.3688 25.1866 21.1662C24.2774 21.9636 23.826 22.0152 22.8469 22.1539C22.0989 22.2598 21.6927 22.0878 20.9162 22.0441C20.0225 21.9939 18.6637 21.6117 18.6637 21.6117L18.1722 22.0441L17.5911 21.925L17.2537 16.5141Z" fill="#5C5C5C"/>
<path d="M43.1196 9.98944V8.9927C45.5866 7.99714 46.3206 7.22894 47.1955 4.04642H47.7123V8.67944H50.8425V9.98944H47.7123V18.5614C47.7123 19.2829 47.8793 19.8524 48.2133 20.2701C48.5474 20.6878 49.1263 20.6175 49.1263 20.6175C49.1263 20.6175 49.7674 20.6126 50.0916 20.398C50.5018 20.1265 50.7352 19.3006 50.7352 19.3006H51.6816C51.6816 19.3006 51.4394 20.4553 51.0064 21.0338C50.24 22.0576 49.4878 22.1884 48.3754 22.1539C47.5208 22.1273 46.9329 21.9693 46.3206 21.3808C45.7082 20.7922 45.402 19.9758 45.402 18.9316V9.98944H43.1196Z" fill="#5C5C5C"/>
<path d="M71.0079 3.05874L70.6861 2.40029L74.7826 0.93335V11.2425C76.1557 9.43886 77.7331 8.53705 79.5145 8.53705C80.8134 8.53705 81.8248 8.98321 82.5485 9.87553C83.2722 10.7678 83.6341 12.0399 83.6341 13.6916V20.0138C83.6341 20.7922 84.0516 21.1814 84.8866 21.1814H86V22.2636H78.9578V21.1814H79.765C80.8042 21.1814 81.3238 20.7922 81.3238 20.0138V13.6916C81.3238 12.6094 81.064 11.7551 80.5444 11.1286C80.0434 10.4831 79.3475 10.1603 78.4568 10.1603C77.4918 10.1603 76.6382 10.578 75.896 11.4134C75.1537 12.2487 74.7826 13.3024 74.7826 14.5744V19.8714C74.7826 20.365 74.8754 20.7068 75.0609 20.8966C75.2465 21.0865 75.5619 21.1814 76.0073 21.1814H77.1207V22.2636H70.2733V21.1814H71.0248C72.0083 21.1814 72.5001 20.7447 72.5001 19.8714L72.6168 4.04642C72.6168 4.04642 72.6392 3.12443 72.295 2.83926C71.899 2.51117 71.0079 3.05874 71.0079 3.05874Z" fill="#5C5C5C"/>
<path d="M66.0738 16.556L66.6101 16.8852C65.2157 20.5067 63.9804 22.1528 61.4196 22.1528C59.6567 22.1528 58.1815 21.5168 56.9938 20.2448C55.8248 18.9537 55.2402 17.2925 55.2402 15.2611C55.2402 13.1157 55.8155 11.369 56.966 10.0211C58.1165 8.67309 59.5732 7.9991 61.3361 7.9991C63.1175 7.9991 64.4809 8.46301 65.5948 9.93563C66.4338 11.0448 66.6101 11.9468 66.6101 13.3734H57.4928C57.4928 14.1139 57.4267 15.3987 57.6 16.0073C57.9578 17.2634 58.0969 17.7161 58.9944 18.5313C59.9368 19.3873 60.4019 19.7385 61.9978 19.7385C63.8163 19.7385 64.9789 18.6634 66.0738 16.556ZM57.4928 12.4955H60.2816C60.9867 12.4955 63.4995 12.4955 63.4995 12.4955C63.4995 12.4955 63.528 10.7108 62.9632 9.93563C62.4134 9.18132 61.8448 8.87402 60.9252 8.87402C59.8525 8.87402 59.1864 9.16859 58.4581 9.93563C57.7284 10.7042 57.4928 11.5078 57.4928 12.4955Z" fill="#5C5C5C"/>
<ellipse cx="34.9685" cy="15.1305" rx="2.14525" ry="2.19484" fill="#5C5C5C"/>
<path d="M19.3052 26.4447H19.8133V30.8001H19.3052V26.4447Z" fill="#5C5C5C"/>
<path d="M22.8149 26.3813H23.0318L25.6901 29.7794L25.7769 29.9379L25.7707 29.7604L25.7645 26.4383H26.2664V30.8001H26.0062L25.6468 30.4387L23.5337 27.8394L23.2921 27.5098L23.3231 27.9282V30.8001H22.8149V26.3813Z" fill="#5C5C5C"/>
<path d="M30.9201 26.413C31.3043 26.4383 31.6451 26.5482 31.9426 26.7426C32.2441 26.9371 32.4775 27.1991 32.6428 27.5288C32.808 27.8542 32.8906 28.2198 32.8906 28.6256C32.8906 29.0567 32.7977 29.4413 32.6118 29.7794C32.43 30.1175 32.176 30.3817 31.8496 30.5719C31.5233 30.7621 31.1515 30.8572 30.7342 30.8572H30.4244C30.3914 30.8572 30.3191 30.8572 30.2075 30.8572C30.096 30.8572 29.8977 30.8445 29.6127 30.8191L29.2657 30.7874V26.4066L30.9201 26.413ZM30.5359 30.3817C31.1308 30.3817 31.5873 30.2316 31.9054 29.9316C32.2235 29.6315 32.3825 29.2025 32.3825 28.6446C32.3825 28.1205 32.2462 27.7042 31.9735 27.3956C31.705 27.0871 31.3312 26.9202 30.852 26.8948H29.7738V30.35C30.0547 30.3711 30.3087 30.3817 30.5359 30.3817Z" fill="#5C5C5C"/>
<path d="M38.0114 30.9332C37.6024 30.929 37.2348 30.8318 36.9084 30.6416C36.5862 30.4472 36.3321 30.1852 36.1462 29.8555C35.9645 29.5216 35.8736 29.1454 35.8736 28.727V28.5431C35.8736 28.1416 35.9665 27.7739 36.1524 27.44C36.3425 27.1019 36.5986 26.8356 36.9208 26.6412C37.2472 26.4426 37.6024 26.3432 37.9866 26.3432C38.3749 26.3432 38.7302 26.4426 39.0524 26.6412C39.3747 26.8356 39.6308 27.1019 39.8208 27.44C40.0108 27.7739 40.1058 28.1416 40.1058 28.5431V28.727C40.1058 29.1454 40.0129 29.5237 39.827 29.8618C39.6452 30.1999 39.3953 30.4641 39.0772 30.6543C38.7591 30.8445 38.4039 30.9375 38.0114 30.9332ZM37.9928 30.4514C38.2944 30.4514 38.567 30.3775 38.8108 30.2295C39.0545 30.0774 39.2466 29.8703 39.387 29.6082C39.5275 29.3462 39.5977 29.0524 39.5977 28.727V28.5431C39.5977 28.2346 39.5254 27.9493 39.3809 27.6873C39.2363 27.421 39.04 27.2118 38.7922 27.0596C38.5484 26.9033 38.2779 26.8251 37.9804 26.8251C37.6871 26.8251 37.4186 26.9033 37.1749 27.0596C36.9311 27.2118 36.737 27.421 36.5924 27.6873C36.4519 27.9493 36.3817 28.2346 36.3817 28.5431V28.727C36.3817 29.0524 36.4519 29.3462 36.5924 29.6082C36.7329 29.8703 36.9249 30.0774 37.1687 30.2295C37.4165 30.3775 37.6913 30.4514 37.9928 30.4514Z" fill="#5C5C5C"/>
<path d="M43.2057 26.3623H43.4225L46.0809 29.7604L46.1676 29.9189L46.1614 29.7414L46.1552 26.4193H46.6571V30.7811H46.3969L46.0375 30.4197L43.9245 27.8204L43.6828 27.4907L43.7138 27.9092V30.7811H43.2057V26.3623Z" fill="#5C5C5C"/>
<path d="M49.6605 26.4447H51.913V26.9265H50.1562V28.2515H51.8355V28.7333H50.1562V30.3183H51.913V30.8001H49.6605V26.4447Z" fill="#5C5C5C"/>
<path d="M56.4303 30.9268C56.1824 30.9268 55.949 30.8782 55.7301 30.781C55.5111 30.6838 55.4492 30.6183 55.2963 30.445C55.1476 30.2717 55.0505 30.0752 55.0051 29.8554L55.4636 29.6588C55.5297 29.9251 55.6681 30.1343 55.8788 30.2865C56.0895 30.4386 56.1907 30.445 56.4303 30.445C56.6864 30.445 56.9033 30.3647 57.0809 30.2041C57.2586 30.0392 57.3208 29.8581 57.3043 29.6101C57.2945 29.4618 57.2895 29.3674 57.1863 29.249C57.083 29.1307 56.9012 29.0081 56.641 28.8813C56.3105 28.7165 56.0585 28.5833 55.885 28.4819C55.7156 28.3762 55.5731 28.2473 55.4574 28.0952C55.3459 27.9388 55.2963 27.6174 55.2963 27.4019C55.2963 27.1948 55.35 27.0109 55.4574 26.8503C55.569 26.6855 55.7156 26.5587 55.8974 26.4699C56.0833 26.3769 56.2816 26.3305 56.4922 26.3305C56.6699 26.3305 56.8351 26.3685 56.988 26.4446C57.145 26.5164 57.2689 26.6136 57.3598 26.7362C57.4548 26.8588 57.5023 26.9898 57.5023 27.1293C57.5023 27.1504 57.4982 27.1863 57.4899 27.237L57.0066 27.2053C57.0231 27.1377 57.0045 27.0743 56.9508 27.0151C56.9012 26.9518 56.831 26.9031 56.7401 26.8693C56.6492 26.8313 56.5625 26.8123 56.4799 26.8123C56.2981 26.8123 56.139 26.8693 56.0027 26.9834C55.8705 27.0933 55.8044 27.2265 55.8044 27.3829C55.8044 27.5097 55.8416 27.7592 55.9284 27.8606C56.0192 27.962 56.1246 28.0508 56.2444 28.1269C56.3642 28.1987 56.5191 28.2833 56.7091 28.3805L56.9322 28.4946C57.2586 28.6763 57.492 28.8581 57.6324 29.0398C57.777 29.2215 57.8006 29.3804 57.8125 29.6165C57.8258 29.8802 57.7894 30.0667 57.6572 30.2738C57.5291 30.4809 57.3556 30.6415 57.1367 30.7556C56.9177 30.8697 56.6823 30.9268 56.4303 30.9268Z" fill="#5C5C5C"/>
<path d="M60.844 26.4447H61.3521V30.8001H60.844V26.4447Z" fill="#5C5C5C"/>
<path d="M66.2862 26.3242L68.2169 30.8001H67.6778L67.0954 29.399H65.4781L64.908 30.8001H64.3689L66.2862 26.3242ZM66.3704 27.5732L66.3208 27.4083L66.2836 27.2625L66.2402 27.402L66.1907 27.5732L65.6701 28.9299H66.8971L66.3704 27.5732Z" fill="#5C5C5C"/>
</svg>
