<svg width="54" height="66" viewBox="0 0 54 66" fill="none" xmlns="http://www.w3.org/2000/svg">
<path d="M36.3452 56.5739V64.9335H42.4063V65.9999H34.7827V56.5739H36.3452Z" fill="#5C5C5C"/>
<path d="M29.3531 62.3006V65.9999H27.785V62.3006L23.0293 56.5739H24.9592L28.5949 61.1684L32.11 56.5739H33.9882L29.3531 62.3006Z" fill="black"/>
<path d="M19.823 63.1694H14.7651L13.3723 65.9999H11.5947L16.2678 56.5739H18.4303L23.0301 65.9999H21.1792L19.823 63.1694ZM19.3466 62.1557L17.3307 57.8772L15.1866 62.1557H19.3466Z" fill="black"/>
<path d="M50.7928 63.1694H45.7348L44.3421 65.9999H42.5645L47.2376 56.5739H49.4L53.9998 65.9999H52.1489L50.7928 63.1694ZM50.3163 62.1557L48.3005 57.8772L46.1563 62.1557H50.3163Z" fill="#5C5C5C"/>
<path d="M10.8001 56.5739V65.9999H8.82938L1.66155 58.3511V65.9999H0V56.5739H1.91271L9.13851 64.2753V56.5739H10.8001Z" fill="black"/>
<path d="M48.2817 28.5137C48.2817 40.6173 38.3621 50.4292 26.1257 50.4292C13.8893 50.4292 3.96973 40.6173 3.96973 28.5137C3.96973 23.199 3.96987 0 3.96987 0L15.0874 9.50744C18.3373 7.65678 22.1065 6.5982 26.1257 6.5982C38.3621 6.5982 48.2817 16.4101 48.2817 28.5137Z" fill="#5C5C5C"/>
<path d="M19.8945 33.5968L15.6239 30.8348C15.6239 30.8348 13.6174 34.2887 13.7349 36.6837C13.8418 38.8609 16.5222 42.1996 16.6865 41.8463C17.1021 40.9527 18.9911 40.2581 18.9911 40.2581C18.9911 40.2581 17.2182 41.2174 17.1021 42.289C16.8558 44.5636 17.0916 48.6234 17.0916 48.6234C17.0916 48.6234 17.8583 48.9635 18.4112 49.1574C18.9535 49.3476 19.8945 49.608 19.8945 49.608V44.5636C19.8945 44.5636 26.7931 45.9446 29.4212 42.289C32.0492 38.6334 35.4164 33.5968 36.8947 30.8348C38.373 28.0728 40.2619 20.8428 33.0347 17.2685C25.8076 13.6942 20.88 21.574 20.88 21.574L25.8076 24.4172C25.8076 24.4172 26.3003 24.8235 25.8897 25.7171C25.4791 26.6106 24.4936 26.2856 24.4936 26.2856L19.7252 23.7308L18.9089 25.1484L23.9255 27.9103C23.9255 27.9103 24.5757 28.3977 24.0829 29.535C23.5902 30.6724 22.3583 30.0225 22.3583 30.0225L17.5949 27.423L16.7736 28.8041L21.3727 31.4848C21.3727 31.4848 22.3583 32.0532 21.7834 33.1094C21.2085 34.1655 19.8945 33.5968 19.8945 33.5968Z" fill="white"/>
</svg>
